<svg version="1" xmlns="http://www.w3.org/2000/svg" width="140" height="140" viewBox="0 0 105.000000 105.000000"><path d="M40.1 9.2c-9.8 3.7-16.9 13.3-19.3 25.7-1.5 8.1-.4 23.4 2.1 30.2 2.7 7.1 8.4 13.7 14.5 16.7 5.5 2.8 8.3 3.4 15.7 3.6 5.3.1 6.1.5 13.3 6.1 4.2 3.3 8 6 8.5 6 1.2 0 9.1-7.3 9.1-8.4 0-.4-2.7-2.8-5.9-5.1l-6-4.4 4-4.4c2.1-2.5 3.9-5.1 3.9-5.8 0-.7.3-1.4.8-1.6 1.8-.8 3.9-11.2 4.1-20.1.4-20.6-7-34-21.8-39.2-6.2-2.1-16.4-1.8-23 .7zM60 21.9c2.3 1.2 4.4 3.6 6 6.7 2.3 4.4 2.5 5.9 2.5 17.9 0 12-.2 13.3-2.5 17.4-3.1 5.4-6.3 7.8-11.5 8.6-6.2.8-12.3-2.7-15.5-9-2.3-4.5-2.5-6.1-2.5-17.5s.2-13 2.5-17.4c2.9-5.7 7.5-8.6 13.5-8.6 2.2 0 5.6.8 7.5 1.9z"/></svg>